<svg version="1.1" id="Calque_1" xmlns="http://www.w3.org/2000/svg" x="0" y="0" viewBox="-180 272 250 250" style="enable-background:new -180 272 250 250" xml:space="preserve"><style>.st0{fill:#e34f26}</style><path class="st0" d="M-180 272H70v250h-250z"/><path d="m-108.6 456.3-11.9-133.7H10.6l-12 133.7-53.8 15.1" style="fill:#fafafa"/><path d="m-54.9 459.8 43.3-11.9 10.2-114.5h-53.5" style="opacity:.6;fill:#efefef"/><path class="st0" d="M-54.9 383h-21.8l-1.5-16.9h23.3v-16.3h-41.3l.3 4.4 4.1 45.4h36.9V383zm0 42.8h-.3l-18.3-4.9-1.2-13.1H-91l2 25.9 33.7 9.3h.3v-17.2z"/><path class="st0" d="M-55.1 383v16.6h20.4l-2 21.2-18.3 4.9v17.2l33.7-9.3.3-2.9 3.8-43.3.6-4.4h-38.5zm0-33.1V366.2h39.8l.3-3.5.9-8.4.3-4.4h-41.3z"/></svg>