<svg xmlns="http://www.w3.org/2000/svg" viewBox="-668 325.5 250 250" style="enable-background:new -668 325.5 250 250" xml:space="preserve"><path d="M-668 325.5h250v250h-250v-250z" style="fill:#f7df1e"/><path d="m-612.3 524.4 19.1-11.6c3.7 6.5 7 12.1 15.1 12.1 7.7 0 12.6-3 12.6-14.8v-79.9h23.5v80.2c0 24.3-14.3 35.4-35.1 35.4-18.7.1-29.6-9.6-35.2-21.4M-529.2 521.9l19.1-11.1c5 8.2 11.6 14.3 23.2 14.3 9.7 0 15.9-4.9 15.9-11.6 0-8.1-6.4-10.9-17.1-15.6l-5.9-2.5c-17-7.2-28.2-16.3-28.2-35.4 0-17.6 13.4-31 34.4-31 14.9 0 25.7 5.2 33.4 18.8l-18.3 11.7c-4-7.2-8.4-10.1-15.1-10.1-6.9 0-11.2 4.4-11.2 10.1 0 7 4.4 9.9 14.4 14.3l5.9 2.5c20 8.6 31.2 17.3 31.2 36.9 0 21.1-16.6 32.7-38.9 32.7-21.8 0-35.9-10.4-42.8-24"/></svg>