<svg xmlns:dc="http://purl.org/dc/elements/1.1/" xmlns:cc="http://creativecommons.org/ns#" xmlns:rdf="http://www.w3.org/1999/02/22-rdf-syntax-ns#" xmlns:svg="http://www.w3.org/2000/svg" xmlns="http://www.w3.org/2000/svg" xmlns:xlink="http://www.w3.org/1999/xlink" id="svg628807" version="1.1" viewBox="279.98 357.5 464.05 53">  <linearGradient gradientTransform="rotate(-30)" spreadMethod="pad" y2="30%" x2="-10%" y1="120%" x1="30%" id="3d_gradient3-logo-06dc1715-303f-440a-9449-8d28bdc7546d">    <stop id="stop628793" stop-opacity="1" stop-color="#ffffff" offset="0%"></stop>    <stop id="stop628795" stop-opacity="1" stop-color="#cccccc" offset="50%"></stop>    <stop id="stop628797" stop-opacity="1" stop-color="#000000" offset="100%"></stop>  </linearGradient>  <g id="logo-group">    <image xlink:href="" id="container" x="272" y="144" width="480" height="480" transform="translate(0 0)" style="display: none;"></image>    <g id="logo-center" transform="translate(0 0)">                  <g id="title" style="font-style:normal;font-weight:400;font-size:72px;line-height:1;font-family:'Brandmark Dots 1 Color';font-variant-ligatures:normal;text-align:center;text-anchor:middle" transform="translate(0 0)">        <g id="path628816" aria-label="F" transform="translate(0 307.504) translate(279.97719000000006 51.296) scale(1) translate(-280.5425 50.4)"> <path class="c1" d="M92.76367,84.36592v36.0752c0,2.59277-2.16016,4.75293-4.82422,4.75293 c-2.59277,0-4.75293-2.16016-4.75293-4.75293V79.5417c0-2.5918,2.16016-4.75195,4.75293-4.75195h24.12207 c2.66406,0,4.75195,2.16016,4.75195,4.75195c0,2.66406-2.08789,4.82422-4.75195,4.82422H92.76367z" transform="translate(197.35598 -125.18975)" stroke-width="0" stroke-linejoin="miter" stroke-miterlimit="2" fill="#8b5cf6" stroke="#8b5cf6"></path> <path class="c3" d="M102.26855,96.39131c2.66406,0,4.82422,2.16016,4.82422,4.82422c0,2.59277-2.16016,4.75293-4.82422,4.75293 c-2.59277,0-4.75293-2.16016-4.75293-4.75293C97.51563,98.55147,99.67578,96.39131,102.26855,96.39131z" transform="translate(197.35598 -125.18975)" stroke-width="0" stroke-linejoin="miter" stroke-miterlimit="2" fill="#653ea8" stroke="#653ea8"></path> </g>        <g id="path628818" aria-label="U" transform="translate(0 307.504) translate(319.67844 51.296) scale(1) translate(-320.24375 50.4)"> <path class="c1" d="M121.96191,103.95186c0,10.87305-6.84082,22.53809-21.96191,22.53809 c-13.10547,0-21.96191-9.07324-21.96191-22.53809V79.5417c0-2.5918,2.16016-4.75195,4.75293-4.75195 c2.66406,0,4.82422,2.16016,4.82422,4.75195v24.41016c0,3.95996,1.15137,12.96094,12.38477,12.96094 c9.14453,0,12.38477-6.69629,12.38477-12.96094V93.8708c0-2.5918,2.16016-4.75195,4.8252-4.75195 c2.5918,0,4.75195,2.16016,4.75195,4.75195V103.95186z" transform="translate(242.20566 -125.18975)" stroke-width="0" stroke-linejoin="miter" stroke-miterlimit="2" fill="#8b5cf6" stroke="#8b5cf6"></path> <path class="c3" d="M112.38477,79.5417c0-2.5918,2.16016-4.75195,4.8252-4.75195c2.5918,0,4.75195,2.16016,4.75195,4.75195 c0,2.66406-2.16016,4.82422-4.75195,4.82422C114.54492,84.36592,112.38477,82.20576,112.38477,79.5417z" transform="translate(242.20566 -125.18975)" stroke-width="0" stroke-linejoin="miter" stroke-miterlimit="2" fill="#653ea8" stroke="#653ea8"></path> </g>        <g id="path628820" aria-label="S" transform="translate(0 307.504) translate(370.12906000000004 50) scale(1) translate(-370.69437 51.696)"> <path class="c3" d="M90.67529,115.04073c0,2.66406-2.16016,4.75293-4.82422,4.75293 c-2.59277,0-4.75293-2.08887-4.75293-4.75293s2.16016-4.75195,4.75293-4.75195 C88.51514,110.28877,90.67529,112.37666,90.67529,115.04073z" transform="translate(289.59623 -125.18887)" stroke-width="0" stroke-linejoin="miter" stroke-miterlimit="2" fill="#653ea8" stroke="#653ea8"></path> <path class="c1" d="M102.48486,126.48994c-3.74512,0-8.78516-1.44043-8.78516-5.1123 c0-3.02441,2.01563-4.68066,4.39258-4.53613c2.44824,0.14355,5.1123,1.00781,7.7041-0.2168 c2.0166-0.93555,3.52832-2.73633,3.52832-5.25586c0-3.02441-3.38379-4.96875-10.72852-7.63281 c-6.625-2.37598-16.56152-5.32813-16.63379-15.19336c0-3.74414,1.44043-7.27246,4.10449-10.00879 c2.30469-2.30469,6.55273-5.04102,13.96973-5.04102c8.42383,0,14.04102,4.46484,15.91309,7.12891 c1.2959,1.72852,1.08008,4.03223-0.21582,5.68848c-1.72852,2.16016-4.32031,1.94434-6.12109,0.36035 c-1.2959-1.15234-4.32031-4.17676-9.86426-4.17676c-4.8252,0-8.20898,2.52051-8.20898,6.04883 c0,2.30371,2.52051,4.24805,10.00879,7.12891c9.2168,3.52832,17.35352,7.41602,17.35352,16.27344 C118.90186,119.07295,113.93311,126.48994,102.48486,126.48994z" transform="translate(289.59623 -125.18887)" stroke-width="0" stroke-linejoin="miter" stroke-miterlimit="2" fill="#8b5cf6" stroke="#8b5cf6"></path> </g>        <g id="path628822" aria-label="I" transform="translate(0 307.504) translate(420.47844000000003 50) scale(1) translate(-421.04375 51.696)"> <path class="c3" d="M95.21143,78.2458c0-2.59277,2.16016-4.75293,4.75293-4.75293c2.66406,0,4.82422,2.16016,4.82422,4.75293 c0,2.66406-2.16016,4.82422-4.82422,4.82422C97.37158,83.07002,95.21143,80.90987,95.21143,78.2458z" transform="translate(325.83232 -125.18887)" stroke-width="0" stroke-linejoin="miter" stroke-miterlimit="2" fill="#653ea8" stroke="#653ea8"></path> <path class="c1" d="M95.21143,120.44112V92.57491c0-2.5918,2.16016-4.75195,4.75293-4.75195 c2.66406,0,4.82422,2.16016,4.82422,4.75195v27.86621c0,2.59277-2.16016,4.75293-4.82422,4.75293 C97.37158,125.19405,95.21143,123.03389,95.21143,120.44112z" transform="translate(325.83232 -125.18887)" stroke-width="0" stroke-linejoin="miter" stroke-miterlimit="2" fill="#8b5cf6" stroke="#8b5cf6"></path> </g>        <g id="path628824" aria-label="O" style="" transform="translate(0 307.504) translate(440.20531000000005 50) scale(1) translate(-440.77062 51.696)"> <path class="c1" d="M99.96436,126.48994c-14.61719,0-26.49902-11.88086-26.49902-26.57031 c0-8.20898,3.74512-15.69727,10.22559-20.80957c2.01563-1.58398,5.04004-1.22461,6.69629,0.86426 c1.58398,2.01563,1.22363,5.04004-0.86426,6.69629c-4.10449,3.24023-6.48047,7.99219-6.48047,13.24902 c0,9.36035,7.56055,16.99316,16.92188,16.99316c9.36035,0,16.99316-7.63281,16.99316-16.99316 c0-5.25684-2.37598-10.00879-6.55273-13.24902c-2.08789-1.65625-2.44824-4.68066-0.79199-6.69629 c1.58398-2.08887,4.6084-2.44824,6.69629-0.86426c6.48047,5.1123,10.22559,12.60059,10.22559,20.80957 C126.53467,114.60909,114.58154,126.48994,99.96436,126.48994z" transform="translate(367.30528 -125.18887)" stroke-width="0" stroke-linejoin="miter" stroke-miterlimit="2" fill="#8b5cf6" stroke="#8b5cf6"></path> <path class="c3" d="M99.96436,73.49287c2.66406,0,4.82422,2.16016,4.82422,4.8252c0,2.5918-2.16016,4.75195-4.82422,4.75195 c-2.59277,0-4.75293-2.16016-4.75293-4.75195C95.21143,75.65303,97.37158,73.49287,99.96436,73.49287z" transform="translate(367.30528 -125.18887)" stroke-width="0" stroke-linejoin="miter" stroke-miterlimit="2" fill="#653ea8" stroke="#653ea8"></path> </g>        <g id="path628826" aria-label="N" transform="translate(0 307.504) translate(502.58657000000005 51.291672) scale(1) translate(-503.15188 50.404328)"> <path class="c1" d="M112.31299,108.12862V93.8708c0-2.66406,2.16016-4.82422,4.75195-4.82422 c2.66504,0,4.8252,2.16016,4.8252,4.75293v26.06543c0,1.65625-0.36035,3.09668-1.80078,4.32031 c-1.15234,0.86426-2.95215,1.5127-4.96777,0.50488c-1.08008-0.57617-1.65625-1.22461-2.44824-2.16016L87.68701,91.92647v28.51465 c0,2.59277-2.16016,4.75293-4.82422,4.75293c-2.59277,0-4.75293-2.16016-4.75293-4.75293v-39.8916 c0-1.7998,0.21582-3.95996,2.52051-5.18359c1.7998-1.00879,4.17578-0.86426,6.4082,1.72754L112.31299,108.12862z" transform="translate(425.04202 -125.189493)" stroke-width="0" stroke-linejoin="miter" stroke-miterlimit="2" fill="#8b5cf6" stroke="#8b5cf6"></path> <path class="c3" d="M121.89014,79.5417c0,2.66406-2.16016,4.75293-4.75293,4.75293c-2.66406,0-4.82422-2.08887-4.82422-4.75293 s2.16016-4.75195,4.82422-4.75195C119.72998,74.78975,121.89014,76.87764,121.89014,79.5417z" transform="translate(425.04202 -125.189493)" stroke-width="0" stroke-linejoin="miter" stroke-miterlimit="2" fill="#653ea8" stroke="#653ea8"></path> </g>        <g id="path628828" aria-label="C" transform="translate(0 307.504) translate(584.06469 50) scale(1) translate(-584.63 51.696)"> <path class="c1" d="M95.49951,114.89717c2.73633,1.58398,5.6167,2.37598,9.14502,2.73633 c3.45605,0.35938,4.89648,2.08789,4.89648,4.32031c0,2.37598-1.58496,4.53613-6.04883,4.53613 c-3.67285,0-7.34473-0.79199-11.0166-2.44824c-9.14502-4.24805-15.48145-13.39355-15.48145-24.0498 c0-14.68945,11.88086-26.49902,26.49805-26.49902c4.82422,0,11.59277,0.93652,17.06543,5.40137 c2.01563,1.65527,2.16016,4.53613,0.64844,6.69629c-1.29688,1.94434-3.96094,2.01563-6.625,0.57617 c-2.87988-1.65625-6.55273-3.09668-11.08887-3.09668c-9.36084,0-16.92139,7.56055-16.92139,16.92188 C86.5708,106.47237,90.09912,111.94502,95.49951,114.89717z" transform="translate(507.63587 -125.18888)" stroke-width="0" stroke-linejoin="miter" stroke-miterlimit="2" fill="#8b5cf6" stroke="#8b5cf6"></path> <path class="c3" d="M113.42871,116.9128c0-2.5918,2.16016-4.75195,4.75293-4.75195c2.66406,0,4.82422,2.16016,4.82422,4.75195 c0,2.66406-2.16016,4.82422-4.82422,4.82422C115.58887,121.73701,113.42871,119.57686,113.42871,116.9128z" transform="translate(507.63587 -125.18888)" stroke-width="0" stroke-linejoin="miter" stroke-miterlimit="2" fill="#653ea8" stroke="#653ea8"></path> </g>        <g id="path628830" aria-label="M" transform="translate(0 307.504) translate(640.1346900000001 51.304866999999994) scale(1) translate(-640.7 50.391133)"> <path class="c1" d="M117.89355,95.59932l-14.04102,27.14648c-0.86426,1.51172-2.44824,2.44824-4.17676,2.44824 c-1.72754,0-3.31152-0.93652-4.17578-2.52051L82.10645,96.03096v24.41016c0,2.59277-2.16016,4.75293-4.82422,4.75293 c-2.59277,0-4.75293-2.16016-4.75293-4.75293V79.5417c0-2.16016,1.44043-4.03223,3.60059-4.6084 c2.08789-0.50391,4.32031,0.43262,5.3291,2.37598l18.28906,34.70703l18.79395-34.77832 c1.00781-1.87207,3.24023-2.80859,5.32813-2.30469c2.08789,0.57617,3.60059,2.44824,3.60059,4.6084v26.57031 c0,2.59277-2.16016,4.75293-4.82422,4.75293c-2.59277,0-4.75293-2.16016-4.75293-4.75293V95.59932z" transform="translate(568.1707 -125.18939)" stroke-width="0" stroke-linejoin="miter" stroke-miterlimit="2" fill="#8b5cf6" stroke="#8b5cf6"></path> <path class="c3" d="M122.64648,125.19405c-2.59277,0-4.75293-2.16016-4.75293-4.75293 c0-2.66406,2.16016-4.82422,4.75293-4.82422c2.66406,0,4.82422,2.16016,4.82422,4.82422 C127.4707,123.03389,125.31055,125.19405,122.64648,125.19405z" transform="translate(568.1707 -125.18939)" stroke-width="0" stroke-linejoin="miter" stroke-miterlimit="2" fill="#653ea8" stroke="#653ea8"></path> </g>        <g id="path628832" aria-label="S" transform="translate(0 307.504) translate(706.2228200000001 50) scale(1) translate(-706.78813 51.696)"> <path class="c3" d="M90.67529,115.04073c0,2.66406-2.16016,4.75293-4.82422,4.75293 c-2.59277,0-4.75293-2.08887-4.75293-4.75293s2.16016-4.75195,4.75293-4.75195 C88.51514,110.28877,90.67529,112.37666,90.67529,115.04073z" transform="translate(625.68999 -125.18887)" stroke-width="0" stroke-linejoin="miter" stroke-miterlimit="2" fill="#653ea8" stroke="#653ea8"></path> <path class="c1" d="M102.48486,126.48994c-3.74512,0-8.78516-1.44043-8.78516-5.1123 c0-3.02441,2.01563-4.68066,4.39258-4.53613c2.44824,0.14355,5.1123,1.00781,7.7041-0.2168 c2.0166-0.93555,3.52832-2.73633,3.52832-5.25586c0-3.02441-3.38379-4.96875-10.72852-7.63281 c-6.625-2.37598-16.56152-5.32813-16.63379-15.19336c0-3.74414,1.44043-7.27246,4.10449-10.00879 c2.30469-2.30469,6.55273-5.04102,13.96973-5.04102c8.42383,0,14.04102,4.46484,15.91309,7.12891 c1.2959,1.72852,1.08008,4.03223-0.21582,5.68848c-1.72852,2.16016-4.32031,1.94434-6.12109,0.36035 c-1.2959-1.15234-4.32031-4.17676-9.86426-4.17676c-4.8252,0-8.20898,2.52051-8.20898,6.04883 c0,2.30371,2.52051,4.24805,10.00879,7.12891c9.2168,3.52832,17.35352,7.41602,17.35352,16.27344 C118.90186,119.07295,113.93311,126.48994,102.48486,126.48994z" transform="translate(625.68999 -125.18887)" stroke-width="0" stroke-linejoin="miter" stroke-miterlimit="2" fill="#8b5cf6" stroke="#8b5cf6"></path> </g>               </g>          </g>  </g></svg>