<svg id="eaf19120-6d1f-476f-81a8-1175cb615d26" data-name="Layer 1" xmlns="http://www.w3.org/2000/svg" viewBox="0 0 500 500"><title>magician</title><path d="M251.88,32.51s-3.55-1.2-4.8-6.07,6.5-8.92,8.85-13.18S254,5.41,254,5.41a9.51,9.51,0,0,1,9,1.94c4.24,3.68,4.91,14.22-1.16,21.16S251.88,32.51,251.88,32.51Z" fill="#ffc692"/><path d="M248.73,28.78s-.61-3,2.34-6.59,5.64-3.29,7.28-5.46A21.19,21.19,0,0,0,261,11.18s2.08,7.81.61,12.75S255,35.11,248.73,28.78Z" fill="#f7856b"/><path d="M165.58,83s-2.55-14.21-.21-22.25,6-10.69,6-10.69-1.25-5,4-13.12,14.87-15.83,29.75-16.56,25.45,13.73,29.4,14.1,7.37-7,12.26-7.46,8.89.37,8.74,2-8,3.61-8.46,4.38S240.55,45.81,235.37,48,217.85,43.6,217,45s3.55,13.92,4.44,17.47,3.52,10.28,2.83,10.63S167.46,79.52,165.58,83Z" fill="#8b5cf6"/><path d="M222.17,65.1c-9.11-3.33-18.35-4.63-37.06-1.38a44,44,0,0,0-20.58,10.19c.33,5,1.05,9,1.05,9,1.88-3.44,57.95-9.53,58.65-9.88C224.77,72.81,223.27,68.61,222.17,65.1Z" fill="#3db797"/><path d="M143.87,100s-20,7.52-23.27,16.29,90.38,1.49,110.79.84,58.52-6.12,61.51-9.37c4.42-4.8-.41-11.16-10.09-17.48s-55.08-14-72.89-12.17S143.87,100,143.87,100Z" fill="#2e2e47"/><path d="M223.81,87.62s2.64,19.71,15.25,27.68,18.08,1.48,34.08,4.73,10.27,17.81,24.18,19.5,31.8-20.44,46.88-13.81,8.59,27,21.13,33.15c44.5,21.88,38.54,104.23-31.06,100.88-18.32-.88-72.22-84.57-80.85-81s-54.6,12.93-72.9-1-26.11-26.92-18.31-37.32S177.92,102,178.32,93.07,220,78.35,223.81,87.62Z" fill="#eae6e4"/><path d="M166.08,150.31l-22.34,99.57s-36.56,19.53-42.65,31.27c-5,9.73-11.8,40,17.46,67.77,14.6,13.88,68.33-18.36,76.8-44.37s6.13-126.91-2.45-139.4S166.08,150.31,166.08,150.31Z" fill="#8b5cf6"/><path d="M404.35,129.52s6.8-.15,21.26,9c22.2,14.11,48.76,37.06,38,48.18C453.38,197.37,398.17,148.25,404.35,129.52Z" fill="#2e2e47"/><path d="M450.51,148.5s-10.77,25.17-11.84,27.63-20-10.14-20.37-12.2,12.83-18.08,17.38-19.35S450.51,148.5,450.51,148.5Z" fill="#ffa982"/><path d="M110.37,271.18S101,301.93,117.3,314s40-1.29,41.1-12.78S130.83,242.74,110.37,271.18Z" fill="#2e2e47"/><path d="M178.34,208.06s-27.57-57.73-2.61-72.3,93.63-8.32,116,22.37,54.1,114.43,61.9,123.28,38,19.13,38,47.22c0,18.73-20.92,34.33-29.66,40.69-18,13.07-48.4,22.89-82.71,21.84-51-1.56-86.39-6.62-126.37-22.35-22.07-8.67-25-48.91-5.75-64s39.53-38.3,37.45-53.22S178.34,208.06,178.34,208.06Z" fill="#8b5cf6"/><path d="M201.7,141.66s10.61,31.38,12.78,42.13,19.34,72,20.21,91.9-3.7,42.82-3.7,42.82,9.2,6.42,31.76,5.12c0,0,1.59-53.06-3.62-74.34S232,167.78,227.8,157.75s-7.68-19.39-7.68-19.39Z" fill="#3db797"/><path d="M106.94,163.59s14.57-11.05,17-9.88,42.91,28.35,42.91,28.35l82.58-7.16,7.93,14.31s-62,16.12-81,14.56-50.71-18.2-55.52-22.62S106.94,163.59,106.94,163.59Z" fill="#ffe2bd"/><path d="M147,317.52s9.76-11,32.39-2.49,43.94,29.87,74.3,27.65,85.14-41,97.37-23.87c5.29,7.41,5.44,52.54-7.82,54.77s-8.85,19.66-70,21.74c-25.35.87-79.33-30.95-97-42.65S133,331.38,147,317.52Z" fill="#2e2e47"/><path d="M102.13,157.75s56.48,34.91,64.76,35.81c18.47,2,93.37-8,93.37-8V301.69s-82.35,7.16-93.11,4.69c-26-6-65-29.39-65-29.39Z" fill="#946255"/><path d="M160.73,189.39a2.38,2.38,0,0,0-3.3,2.17l-1,111.68v1.3a3.9,3.9,0,0,0,2.31,3.56,29.78,29.78,0,0,0,13.18,2.44l.61-.11a3.9,3.9,0,0,0,3.2-3.84V194.16a2.37,2.37,0,0,0-2.33-2.37A36.12,36.12,0,0,1,160.73,189.39Z" fill="#ffc97d"/><path d="M246.39,187.33s-.52,4.61,0,6l.78,2.08s-2.75,4.25-.51,5.37,5.19-3.12,5.19-3.12,8.67.26,9.1-.43-.69-11.66-.69-11.66S249.07,185.85,246.39,187.33Z" fill="#ffc97d"/><path d="M261.4,289.71a2.11,2.11,0,0,0-2-1.75c-1.91-.12-5.12-.26-6.07.1l-1.15.43a2.09,2.09,0,0,1-1.73-.1c-1.29-.68-3.75-1.68-4.57-.05s1.15,3.58,2.32,4.57a2.09,2.09,0,0,1,.77,1.67c0,2.33-.08,7.71.46,8.05s6.79-.23,9.92-.52a2.14,2.14,0,0,0,1.92-1.93C261.53,297.55,261.87,292.59,261.4,289.71Z" fill="#ffc97d"/><path d="M220.82,218.12s-14,15.78-14,18.29,5.76,41.27,5.91,42,15.24.18,15.5-.43,5.46-38.58,5.2-40.92S220.82,218.12,220.82,218.12Z" fill="#ffc97d"/><path d="M321.73,252.45c5,5.26,16.2,8.62,22.47,11.12-5.61-12.09-12.85-28.72-20.62-45.62-11.52-7.48-22.48-15.31-27.08-20.64C296.5,197.31,300.9,230.44,321.73,252.45Z" fill="#2e2e47"/><path d="M114.53,164.06a.64.64,0,0,1,.23.66c-.3,1.16-1.17,4.55-1.56,5.6l-.62,1.65a.64.64,0,0,0,0,.49c.46,1,2.1,4.71.34,5.25s-5-3-5.65-3.81a.64.64,0,0,0-.35-.21c-1-.2-5.09-1.09-5.45-1.78-.78-1.45-.17-11.07,0-14.16a.63.63,0,0,1,.92-.52C104.93,158.49,112.11,162.2,114.53,164.06Z" fill="#ffc97d"/><path d="M101.3,266.31a1.31,1.31,0,0,1,1.77-1.11c1.72.5,4.61,1.42,5.46,2.09l1,.8a1.9,1.9,0,0,0,1.56.46c1.16-.25,3.38-.45,4.11,1.45s-1,3.2-2.09,3.81a1.52,1.52,0,0,0-.69,1.42c0,2.34.07,7.73-.42,7.9s-6.11-2.45-8.92-3.77a3.22,3.22,0,0,1-1.72-2.55A58.44,58.44,0,0,1,101.3,266.31Z" fill="#ffc97d"/><path d="M220.08,222.76s-10.92,13.65-10.27,16.38,4.94,36.55,4.94,36.55H226.8s3.77-34,2.64-38.5C227.88,231,220.08,222.76,220.08,222.76Z" fill="#3db797"/><path d="M218.21,274.44a.39.39,0,0,1-.39-.35l-4.53-35.22.05-.11,6.41-14.39a.41.41,0,0,1,.54-.2.4.4,0,0,1,.2.53L214.12,239l4.49,35a.4.4,0,0,1-.34.45Z" fill="#2e2e47"/><path d="M224.17,240.15l-10.49-.82a.4.4,0,0,1-.37-.43.38.38,0,0,1,.43-.37l9.44.74-2.76-14.22a.42.42,0,0,1,.32-.48.41.41,0,0,1,.47.32Z" fill="#2e2e47"/><path d="M226,239.68a.42.42,0,0,1-.39-.28.41.41,0,0,1,.27-.51l3.56-1.13a.41.41,0,0,1,.51.26.4.4,0,0,1-.26.51l-3.57,1.13Z" fill="#2e2e47"/><path d="M425.93,186.56c9.52,6.33,20.36,10.14,29.57,12.43,5.08-7.27,8.14-12.25,8.14-12.25a102.16,102.16,0,0,1-35-20.57c-23.84-21.93-24.31-36.65-24.31-36.65L392.6,148.61C394.85,156.44,402.19,170.77,425.93,186.56Z" fill="#3db797"/><path d="M425.93,186.56c-23.74-15.79-31.08-30.12-33.33-37.95l-24.39,39.62L280.86,147.4s6.85,50.25,24.66,70.72c27,31.1,63.46,45.6,93.36,35.46,21.05-7.14,44.54-37.33,56.62-54.59C446.29,196.7,435.45,192.89,425.93,186.56Z" fill="#8b5cf6"/><path d="M223.68,273.14h0a.4.4,0,0,1-.39-.42l1.56-32.51a.42.42,0,0,1,.43-.38.4.4,0,0,1,.38.42l-1.56,32.51A.4.4,0,0,1,223.68,273.14Z" fill="#2e2e47"/><path d="M286.41,233l-35.69,5.73v16.08L289.11,248a4.52,4.52,0,0,0,3.07-2.11l4.32-7.22-6.73-4.92A4.46,4.46,0,0,0,286.41,233Zm-7.94,10.11c-5.38-.17-8.33-1.27-2.08-1.91,0,0,12.22-1.39,13-1S283.84,243.26,278.47,243.09Z" fill="#ffc97d"/><path d="M196.71,289.64a.85.85,0,0,1-.54-.21.8.8,0,0,1-.26-.58L194.55,206a.8.8,0,0,1,.71-.81l45.41-5a.83.83,0,0,1,.62.2.78.78,0,0,1,.27.59L243.29,285a.79.79,0,0,1-.73.82l-45.78,3.78Zm-.54-83L197.51,288l44.16-3.65L240,201.87Z" fill="#2e2e47"/><path d="M445.81,155.51s8.51-5.34,14.62-7.74,10.4-2,12.15-6.81,8.89-16.66,6.12-16.45-9.46,11.15-9.46,11.15,6.26-16.32,3.13-17.3-3.9.74-3.9.74-1-3.72-2.52-3.43-8.6,12.38-8.6,12.38,1.82-11.89-.88-12.16-6.4,11.66-6.4,11.66-10.82,5.86-14,11.69-3.73,12.56-1.68,15.15S444.46,157.48,445.81,155.51Z" fill="#ffa982"/><path d="M140.79,304.6s-13.53-2.83-14.88-2.65-4.7,1.82-6.3-1.86,2.44-30.09,5-29.8c3.24.35.65,15.41.65,15.41s3.33-13.47,5.71-13.88,3.58,2.31,3.58,2.31,3.22-.19,4,.95c2.24,3.31.51,13.65.79,14.85s1.26,2.8,2.82.81,1.2-4.79,2.15-7.35,3.42-.79,2.25,3.75S144.76,305.41,140.79,304.6Z" fill="#ffa982"/><path d="M218.79,72.93s11.33,16.27,0,26.53S200.06,77.77,201,73.93,215.28,71,218.79,72.93Z" fill="#eae6e4"/><path d="M169.67,86l5.19,18.17c1.21,4.24,1.62,8.71,4.21,14.74s9.89,15.52,21.54,12,20-16.4,19.91-23.59-1.7-9.77-1.7-9.77,3.63-1,3.66-6.29-.36-12-4.66-11-4.25,3.52-5.31,3.6-9.43-9.31-15.17-8.77S170.51,79,169.67,86Z" fill="#ffa982"/><path d="M185.11,93.78h-.06a.39.39,0,0,1-.33-.46A5.78,5.78,0,0,1,188,89.42a31.78,31.78,0,0,1,7.39-2.12.41.41,0,0,1,.46.34.41.41,0,0,1-.34.46,31.46,31.46,0,0,0-7.15,2,5,5,0,0,0-2.83,3.31A.4.4,0,0,1,185.11,93.78Z" fill="#2e2e47"/><path d="M203,102c.4,1.42-1.45,3.2-4.15,4s-5.21.24-5.61-1.18,1.45-3.2,4.14-4S202.6,100.58,203,102Z" fill="#f2836d"/><path d="M214.48,80s.06,9.1-3.13,11.2S203.29,81,201.88,78.83A15,15,0,0,0,197.34,75S214.39,68,214.48,80Z" fill="#eae6e4"/><path d="M188.24,97.66a.37.37,0,0,1-.24-.08.4.4,0,0,1-.08-.56,5.58,5.58,0,0,1,5.19-2.18,8.68,8.68,0,0,1,2.87.79.4.4,0,1,1-.36.72,7.92,7.92,0,0,0-2.61-.71,4.74,4.74,0,0,0-4.45,1.87A.41.41,0,0,1,188.24,97.66Z" fill="#2e2e47"/><path d="M189.8,95.73s-.43.08-.88.82.37,2.94,2.2,3.4a2,2,0,0,0,2.58-2.38C193.51,96.1,192.23,94.41,189.8,95.73Z" fill="#2e2e47"/><path d="M188.55,111s3.24-2.92,6.3-3.37,5.79-2.57,6.44-4.21,2-1,2.4,0,0,4.21,0,4.21a7.34,7.34,0,0,0,4.29-5.53c.92-4.35-2.33-12.55-.45-13.39s4.14-1.55,4.83-.65,10.8,19.62,13.57,25.29,3.22,15.48,2.17,26.33c-1.56,16-9.45,30.34-23.56,29.23s-24.24-8.13-48.11-1.43c-2.64.75-2.32-4,12.23-9.71,8.07-3.15,3-13.23,6.09-15.38s-1.29-25.79,1.44-32.42a16.67,16.67,0,0,1,4.95,1.49C183,112.5,183.87,113.9,188.55,111Z" fill="#eae6e4"/><path d="M175.5,102.85a.3.3,0,0,1-.13,0,.4.4,0,0,1-.25-.51,3.64,3.64,0,0,1,2-2.31,5.88,5.88,0,0,1,4.18.19.41.41,0,0,1,.21.54.4.4,0,0,1-.53.2,5.14,5.14,0,0,0-3.54-.19,2.9,2.9,0,0,0-1.56,1.83A.4.4,0,0,1,175.5,102.85Z" fill="#2e2e47"/><path d="M177.08,100.55s-.33,0-.65.49.41,2.45,1.83,3.15,2.1-.23,1.9-1.45S178.9,99.92,177.08,100.55Z" fill="#2e2e47"/><path d="M180.41,109.61a2.65,2.65,0,0,1-1.92,3.34,2.69,2.69,0,1,1-1.47-5.14A2.62,2.62,0,0,1,180.41,109.61Z" fill="#f2836d"/><path d="M183.7,113a3.44,3.44,0,0,1-2.08-.58,4.08,4.08,0,0,1-1.83-2.84c-.14-1.27.47-2.69,1.81-4.21a4.48,4.48,0,0,0,.74-3.77,7.46,7.46,0,0,0-3-5c-2.31-1.29-5.9,1.75-5.93,1.78a.4.4,0,0,1-.53-.61c.17-.14,4-3.44,6.86-1.87a8.19,8.19,0,0,1,3.41,5.55,5.24,5.24,0,0,1-.92,4.44c-1.19,1.34-1.73,2.55-1.62,3.6a3.32,3.32,0,0,0,1.51,2.27c.7.52,2,.56,3.62.09a7.07,7.07,0,0,0,3.13-1.65.41.41,0,0,1,.56-.07.4.4,0,0,1,.07.57A9.08,9.08,0,0,1,183.7,113Z" fill="#2e2e47"/><path d="M120.6,116.33s42.55-26.79,80.18-31.08,82,5.07,82,5.07S261.43,78,243.62,74.2s-31.55-5.47-52.87-3.65S125.93,101.5,120.6,116.33Z" fill="#8b5cf6"/><path d="M435.6,149.5s-6.76-4.68-8.24-3.47-1.73,4.68-2.25,5.55-3.15,2.88-3.41,4.53,13.55,9.6,16.07,10.9,5.59,1.19,5.85.58.52-3.21,1.3-3.9,1.95-3.08,3.38-4.82S435.6,149.5,435.6,149.5Z" fill="#f4824a"/><path d="M482.63,81.24c-2.22-12.85-12.38-23.71-12.38-23.71a30.47,30.47,0,0,1,0,8.64,18.68,18.68,0,0,1-2.8,7.36s.35-14.48-2.57-20.79-9.23-14.25-9.23-14.25a33,33,0,0,1-1.4,7.24C453,50.06,446,55.9,444.67,64a23.42,23.42,0,0,0-.26,4.92C441.48,65.21,436,61.5,436,61.5a44.52,44.52,0,0,1-5.73,17.29c-4.9,7.94-5.14,21.26,3.86,27.33s21.49,2.46,21.49,2.46C482.52,111.26,484.85,94.09,482.63,81.24Z" fill="#ffc692"/><path d="M453,106.11s-8.19-4.68-10.4-12.61,11.18-28.87,13.65-25.62,10,18.86,9.87,25.23S459.09,107.67,453,106.11Z" fill="#f7856b"/><path d="M186.83,114.87s4.73.48,6.68-.22,2.51-1.9,3-1,1.65,6.32,0,7.8-6.9-3.34-8.43-2-1.84,3.9-3.79,3.34-4.77-4.67-4.6-6.43S182.11,117.64,186.83,114.87Z" fill="#ffa982"/><path d="M186,117.58a24.16,24.16,0,0,1-4.34-.37.4.4,0,1,1,.15-.79c.08,0,7.3,1.37,12.52-1.47a.41.41,0,0,1,.55.16.42.42,0,0,1-.16.55A18.58,18.58,0,0,1,186,117.58Z" fill="#2e2e47"/><path d="M260.26,321.52a.41.41,0,0,1-.13-.79c.52-.17,51.66-17.29,66-24.34a269.67,269.67,0,0,0,27.27-15.32.41.41,0,0,1,.56.11.4.4,0,0,1-.12.56,270.1,270.1,0,0,1-27.35,15.37c-14.4,7.08-65.6,24.22-66.11,24.39Z" fill="#fff"/><path d="M257.83,324.21c-21,0-30.1-6.62-36.75-11.48l-1.6-1.16a.4.4,0,0,1,.47-.65l1.6,1.16c7.06,5.15,15.85,11.56,37.41,11.32,23.79-.27,63-17.86,63.42-18a.4.4,0,0,1,.34.73c-.38.18-39.8,17.85-63.75,18.11Z" fill="#fff"/><path d="M372.22,247.83a.69.69,0,0,1-.24-.05c-1.41-.69-8.12-16.38-8.35-29.65-.16-9.33-.12-15.71-.07-19.25-1.94,7.55-6.36,26.82-4.33,39.2a.39.39,0,0,1-.33.46.41.41,0,0,1-.47-.33c-2.58-15.77,5.14-42.47,5.22-42.74a.4.4,0,0,1,.45-.29.42.42,0,0,1,.34.42c0,.07-.26,7.45,0,22.51.19,11.58,5.57,25.22,7.43,28.32v-.06c-1.14-5.94-3.93-56-4.05-58.12a.4.4,0,0,1,.38-.42.39.39,0,0,1,.42.38c0,.52,2.91,52.12,4,58,.17.91.14,1.31-.13,1.51A.47.47,0,0,1,372.22,247.83Z" fill="#fff"/><path d="M217,45.39l-.11,0a.41.41,0,0,1-.28-.5,6.54,6.54,0,0,1,5.89-4.44.41.41,0,0,1,.43.38.4.4,0,0,1-.38.42,5.63,5.63,0,0,0-5.16,3.87A.42.42,0,0,1,217,45.39Z" fill="#2e2e47"/><path d="M171.33,50.42a.41.41,0,0,1-.36-.22.4.4,0,0,1,.19-.54c.11-.06,11.62-5.67,23.34-3.85,7.77,1.21,10.77,1.11,11.57.9a9.22,9.22,0,0,0-2.11-.9c-5.45-1.82-17.73-2-22.58-.86a.4.4,0,1,1-.19-.78c5.05-1.22,17.36-1,23,.88,2.5.83,2.93,1.35,2.8,1.86-.38,1.6-9,.26-12.64-.3-11.46-1.78-22.74,3.72-22.86,3.77A.37.37,0,0,1,171.33,50.42Z" fill="#2e2e47"/><path d="M125.68,165.23s-10.8-1-15.62,9-10.53,15.61-18.85,16.26-19.77,5.85-22.5,14.56-4.55,15.35-4.55,15.35l13.78-5.72,6.25,13.39s2.6-15.34,12.61-17.68,23-4.69,27.31-10,2.39-10.82,8.45-15.86,14.83-4.68,14.83-4.68Z" fill="#3db797"/><path d="M136,332.21c-.62-4.78,6.62-20.13,19.68-20.6C173,311,271.07,368.83,284.88,374.19c10.23,4,17.59,6,21.16,7.94,5.64,3.05,2.18,12.57-12.09,12.94-8.79.23-41-4.53-63.31-10.92C217.44,380.36,141.24,372.65,136,332.21Z" fill="#ffe2bd"/><path d="M277.28,393.59s9.59-4.4,12.33-9.07c3.59-6.08,4.29-8.15,7.07-8.5s27,2.75,30.69,2.67c12.11-.27,13.06-9.8,16.2-7.46s-.91,19.69-13.46,25.49S277.28,393.59,277.28,393.59Z" fill="#3db797"/><path d="M366.77,323.74s-1.4-10.79-18.5-13.18S237,366,220.83,374.4c-9.73,5.07-34.15,14.28-27.78,22.3,9.2,11.6,13.37,6,21.9,3.86s49.16-13.13,62.5-16.36S374.77,360.3,366.77,323.74Z" fill="#ffe2bd"/><path d="M226.86,397.45S209.63,405,201,408.9s-16.4,11.21-16.91,16.19,8.61,3.47,8.55,6.23-11.83,2.37-17.47-.5-15.55-6.64-8.37-18.54,11.45-19.13,20.45-23.08,24.23-13.81,29.06-11.93Z" fill="#3db797"/><path d="M218.46,377.27a.41.41,0,0,1-.21-.75l33-20a.42.42,0,0,1,.56.14.4.4,0,0,1-.14.55l-33,20A.39.39,0,0,1,218.46,377.27Z" fill="#2e2e47"/><ellipse cx="248.95" cy="476.94" rx="187.67" ry="15.53" fill="#202028" opacity="0.11"/></svg>